<?xml version="1.0" encoding="utf-8"?>
<!-- Generator: Adobe Illustrator 27.2.0, SVG Export Plug-In . SVG Version: 6.00 Build 0)  -->
<svg version="1.1" id="Layer_2_00000035506096960720695190000007216212820589051786_"
	 xmlns="http://www.w3.org/2000/svg" xmlns:xlink="http://www.w3.org/1999/xlink" x="0px" y="0px" viewBox="0 0 409.1 34.1"
	 style="enable-background:new 0 0 409.1 34.1;" xml:space="preserve">
<style type="text/css">
	.st0{fill:none;stroke:#FFFFFF;stroke-width:0.5;}
</style>
<g id="Layer_1-2">
	<g>
		<path class="st0" d="M22.5,1c2.3,0,4.3,0.2,6,0.7s3.2,1.2,4.5,2c1.2,0.9,2.3,1.9,3.1,3s1.4,2.4,1.8,3.7c0.4,1.3,0.6,2.6,0.6,4
			c0,1.7-0.3,3.4-0.9,5C37,21,36,22.5,34.8,23.8c-1.3,1.3-2.9,2.3-4.9,3.1S25.2,28,22.5,28H1V1H22.5z M19.6,11.4h-4.3v6.3h4.4
			c0.5,0,1-0.1,1.4-0.3c0.4-0.2,0.8-0.4,1.1-0.7c0.3-0.3,0.5-0.6,0.7-1s0.2-0.8,0.2-1.2c0-0.6-0.1-1.1-0.4-1.6S22,12,21.5,11.8
			S20.3,11.4,19.6,11.4L19.6,11.4z"/>
		<path class="st0" d="M39.4,15.4V5.7h12.5v7.1l0,0c-2.1,0.4-4.1,0.9-6.2,1.3C43.5,14.6,41.5,15,39.4,15.4z M39.4,28V15.4h12.5V28
			H39.4z"/>
		<path class="st0" d="M84.7,14.4v8.8c0,1.3-0.3,2.5-0.9,3.5s-1.4,2-2.5,2.8s-2.3,1.5-3.7,2c-1.4,0.5-2.9,0.9-4.5,1.2
			s-3.2,0.4-4.9,0.4c-2.1,0-4.2-0.2-6.3-0.7c-2.1-0.5-3.9-1.1-5.5-2.1v-5.7c0.7,0.5,1.5,0.9,2.5,1.2c1,0.4,2.1,0.7,3.2,0.9
			c1.1,0.2,2.2,0.3,3.3,0.3c0.9,0,1.8-0.1,2.6-0.3c0.8-0.2,1.5-0.5,2.1-0.8c0.6-0.4,1.1-0.9,1.5-1.5s0.5-1.4,0.5-2.3v-6.7
			c0-0.4-0.1-0.8-0.3-1.1c-0.2-0.3-0.4-0.6-0.7-0.8c-0.3-0.2-0.7-0.4-1.1-0.5c-0.3,0-0.8,0-1.3,0c-0.7,0-1.4,0.1-1.9,0.3
			c-0.6,0.2-1,0.5-1.3,0.8c-0.3,0.4-0.5,0.8-0.5,1.3c0,0.6,0.2,1,0.5,1.4s0.8,0.7,1.3,0.9c0.6,0.2,1.2,0.3,1.9,0.3
			c1.9,0,3.1-0.7,3.6-2.1l-2.2,8.5c-1,0.6-2,1-3,1.1s-2,0.2-3,0.2c-1.5,0-2.9-0.2-4.2-0.7s-2.5-1.1-3.6-2c-1-0.9-1.9-1.9-2.5-3.2
			c-0.6-1.3-0.9-2.7-0.9-4.3c0-1.1,0.1-2.1,0.4-3s0.7-1.8,1.2-2.5c0.5-0.8,1.2-1.4,1.9-2s1.5-1.1,2.4-1.5s1.8-0.7,2.8-0.9
			c1-0.2,2-0.3,3-0.3c0.5,0,1,0,1.5,0.1c0.6,0.1,1.1,0.2,1.7,0.3c0.6,0.1,1.1,0.3,1.6,0.5s1,0.5,1.5,0.8c0.4,0.3,0.8,0.7,1.1,1.2
			c0,0,0,0.1,0.1,0.1s0,0,0,0V5.7h12.5L84.7,14.4L84.7,14.4z"/>
		<path class="st0" d="M86.1,15.4V5.7h12.5v7.1l0,0c-2.1,0.4-4.1,0.9-6.2,1.3C90.3,14.6,88.2,15,86.1,15.4z M86.1,28V15.4h12.5V28
			H86.1z"/>
		<path class="st0" d="M100.1,18.6v-13l12.3-3v12.6c0,0.5,0.1,0.9,0.3,1.2c0.2,0.3,0.5,0.6,0.9,0.8s0.8,0.4,1.3,0.5s1.1,0.2,1.7,0.2
			c0.7,0,1.4-0.1,2.1-0.3c0.7-0.2,1.4-0.5,2-0.9s1-0.8,1.3-1.3v10.9c-1,0.8-2.4,1.4-4,1.8s-3.3,0.6-4.9,0.6c-2.5,0-4.7-0.4-6.6-1.2
			s-3.5-2-4.6-3.5C100.7,22.6,100.1,20.8,100.1,18.6z M112.5,15.5c0.3-1.1,0.6-2.2,0.8-3.3c0.3-1.1,0.6-2.2,0.8-3.3
			c0.3-1.1,0.5-2.2,0.8-3.3h7v9.8C122,15.5,112.5,15.5,112.5,15.5z"/>
		<path class="st0" d="M130.9,5.2c2.1-0.4,4.1-0.6,6.2-0.6c2,0,4,0.2,5.8,0.6c1.9,0.4,3.5,1,5,1.8s2.6,1.8,3.5,3s1.3,2.6,1.3,4.1v14
			h-12.6v-7.6c0-0.4-0.1-0.8-0.4-1c-0.3-0.3-0.6-0.5-1-0.6s-0.8-0.2-1.2-0.2c-0.9,0-1.6,0.2-2.1,0.5c-0.5,0.4-0.7,0.8-0.7,1.2
			c0,0.5,0.2,0.9,0.7,1.2c0.5,0.4,1.2,0.6,2.1,0.6c0.4,0,0.9-0.1,1.5-0.3c0.6-0.2,1-0.6,1.3-1.3c-0.5,1.2-1,2.4-1.5,3.5
			c-0.5,1.2-1,2.4-1.5,3.5c-0.9,0.4-1.8,0.7-2.7,0.9s-1.9,0.3-2.8,0.3c-1.1,0-2.2-0.2-3.3-0.5c-1-0.3-2-0.7-2.8-1.3
			c-0.8-0.6-1.5-1.3-2-2.2c-0.5-0.9-0.7-1.9-0.7-3c0-0.7,0.1-1.4,0.4-2.1c0.2-0.7,0.6-1.3,1.1-1.9s1.1-1.1,1.8-1.6
			c0.7-0.5,1.6-0.8,2.6-1.1c1-0.3,2.2-0.4,3.5-0.4c0.8,0,1.7,0.1,2.4,0.2s1.5,0.3,2.2,0.6s1.3,0.6,1.9,1c0.6,0.4,1,0.8,1.4,1.3v-0.3
			c0-0.7-0.2-1.4-0.6-1.9c-0.4-0.5-0.9-1-1.5-1.3s-1.4-0.6-2.2-0.8s-1.7-0.3-2.6-0.3c-1.4,0-2.8,0.2-4.3,0.5
			c-1.4,0.4-2.7,0.9-3.8,1.6V7C126.9,6.2,128.8,5.6,130.9,5.2L130.9,5.2z"/>
		<path class="st0" d="M154.1,28V1h12.5v27H154.1z"/>
		<path class="st0" d="M196.7,1c2.3,0,4.3,0.2,6,0.7s3.2,1.2,4.5,2c1.2,0.9,2.3,1.9,3.1,3s1.4,2.4,1.8,3.7s0.6,2.6,0.6,4
			c0,1.7-0.3,3.4-0.9,5c-0.6,1.6-1.6,3.1-2.8,4.4c-1.3,1.3-2.9,2.3-4.9,3.1c-2,0.8-4.4,1.2-7.2,1.2h-21.5V1H196.7z M193.8,11.4h-4.3
			v6.3h4.4c0.5,0,1-0.1,1.4-0.3c0.4-0.2,0.8-0.4,1.1-0.7c0.3-0.3,0.5-0.6,0.7-1s0.2-0.8,0.2-1.2c0-0.6-0.1-1.1-0.4-1.6
			c-0.3-0.5-0.7-0.9-1.2-1.1S194.5,11.4,193.8,11.4L193.8,11.4z"/>
		<path class="st0" d="M229.5,19.9c1.3,0,2.3-0.2,3-0.7s1.1-1.1,1.1-1.9l11.1,3.6c-0.4,1.5-1.3,2.9-2.8,4.1
			c-1.4,1.2-3.2,2.2-5.3,2.9s-4.5,1.1-7.2,1.1c-2.3,0-4.4-0.3-6.3-0.8c-2-0.5-3.7-1.3-5.1-2.3c-1.5-1-2.6-2.3-3.5-3.8
			c-0.8-1.5-1.3-3.3-1.3-5.4c0-2,0.4-3.8,1.3-5.4c0.8-1.5,2-2.8,3.5-3.8s3.2-1.8,5.2-2.3s4.1-0.8,6.3-0.8c2.3,0,4.4,0.3,6.3,0.8
			s3.6,1.3,4.9,2.3c1.4,1,2.4,2.4,3.2,4s1.1,3.5,1.1,5.7h-19.7l0,0c0,0.4,0.1,0.7,0.3,1s0.5,0.6,0.8,0.8s0.8,0.4,1.3,0.5
			C228.3,19.8,228.9,19.9,229.5,19.9L229.5,19.9z M229.5,13.7c-1.2,0-2.1,0.2-2.9,0.6c-0.8,0.4-1.2,1-1.2,1.8v0.1h8.1l0,0v-0.1
			c0-0.4-0.1-0.7-0.3-1s-0.5-0.6-0.8-0.8c-0.4-0.2-0.8-0.4-1.3-0.5C230.6,13.8,230,13.7,229.5,13.7z"/>
		<path class="st0" d="M245.7,12.8c0-1.4,0.4-2.6,1.2-3.6s1.8-1.9,3.2-2.5s2.9-1.2,4.6-1.5c1.7-0.3,3.5-0.5,5.3-0.5
			c2.3,0,4.4,0.2,6.4,0.6s3.7,0.9,5.3,1.6v8.4c-0.7-0.5-1.6-0.9-2.6-1.3s-2.2-0.6-3.5-0.8c-1.2-0.2-2.4-0.3-3.4-0.3
			c-0.7,0-1.4,0-2,0.1s-1.1,0.2-1.4,0.4s-0.5,0.4-0.5,0.6c0,0.1,0.1,0.3,0.2,0.3c0.1,0.1,0.3,0.1,0.5,0.1s0.5,0,0.8,0h2.9
			c1.2,0,2.4,0.1,3.6,0.2c1.2,0.2,2.3,0.5,3.3,0.9c1,0.5,1.8,1.1,2.4,2s0.9,2,0.9,3.4c0,1.5-0.4,2.7-1.2,3.7c-0.8,1-1.9,1.8-3.3,2.5
			c-1.4,0.6-2.9,1.1-4.6,1.4s-3.5,0.4-5.3,0.4c-2.2,0-4.3-0.2-6.5-0.6s-3.9-1-5.5-1.8v-8.8c0.6,0.6,1.5,1.2,2.6,1.6s2.3,0.7,3.6,0.9
			c1.3,0.2,2.5,0.3,3.7,0.3c0.7,0,1.4,0,2-0.1s1.1-0.2,1.4-0.4c0.3-0.2,0.5-0.4,0.5-0.7c0-0.1,0-0.2-0.1-0.3c-0.1,0-0.2-0.1-0.3-0.1
			c-0.2,0-0.4,0-0.6,0H257c-0.8,0-1.8,0-2.8-0.1s-2-0.2-3-0.4c-1-0.2-1.9-0.5-2.8-1c-0.8-0.4-1.5-1.1-2-1.8S245.7,14,245.7,12.8z"/>
		<path class="st0" d="M273.8,15.4V5.7h12.5v7.1l0,0c-2.1,0.4-4.1,0.9-6.2,1.3C278,14.6,275.9,15,273.8,15.4z M273.8,28V15.4h12.5
			V28H273.8z"/>
		<path class="st0" d="M319.2,14.4v8.8c0,1.3-0.3,2.5-0.9,3.5s-1.4,2-2.5,2.8s-2.3,1.5-3.7,2c-1.4,0.5-2.9,0.9-4.5,1.2
			s-3.2,0.4-4.9,0.4c-2.1,0-4.2-0.2-6.3-0.7c-2.1-0.5-3.9-1.1-5.5-2.1v-5.7c0.7,0.5,1.5,0.9,2.5,1.2c1,0.4,2.1,0.7,3.2,0.9
			c1.1,0.2,2.2,0.3,3.3,0.3c0.9,0,1.8-0.1,2.6-0.3c0.8-0.2,1.5-0.5,2.1-0.8c0.6-0.4,1.1-0.9,1.5-1.5s0.5-1.4,0.5-2.3v-6.7
			c0-0.4-0.1-0.8-0.3-1.1c-0.2-0.3-0.4-0.6-0.7-0.8c-0.3-0.2-0.7-0.4-1.1-0.5s-0.9-0.2-1.4-0.2c-0.7,0-1.4,0.1-1.9,0.3
			c-0.6,0.2-1,0.5-1.3,0.8c-0.3,0.4-0.5,0.8-0.5,1.3c0,0.6,0.2,1,0.5,1.4s0.8,0.7,1.3,0.9c0.6,0.2,1.2,0.3,1.9,0.3
			c1.9,0,3.1-0.7,3.6-2.1l-2.2,8.5c-1,0.6-2,1-3,1.1s-2,0.2-3,0.2c-1.5,0-2.9-0.2-4.2-0.7c-1.3-0.5-2.5-1.1-3.6-2
			c-1-0.9-1.9-1.9-2.5-3.2c-0.6-1.3-0.9-2.7-0.9-4.3c0-1.1,0.1-2.1,0.4-3s0.7-1.8,1.2-2.5c0.5-0.8,1.2-1.4,1.9-2
			c0.7-0.6,1.5-1.1,2.4-1.5s1.8-0.7,2.8-0.9c1-0.2,2-0.3,3-0.3c0.5,0,1,0,1.5,0.1c0.6,0.1,1.1,0.2,1.7,0.3c0.6,0.1,1.1,0.3,1.6,0.5
			s1,0.5,1.5,0.8c0.4,0.3,0.8,0.7,1.1,1.2c0,0,0,0.1,0.1,0.1s0,0,0,0V5.7H319v8.7H319.2z"/>
		<path class="st0" d="M320.6,28V5.7H333V28H320.6z M336.8,28V16.6c0-0.7-0.2-1.2-0.5-1.5s-0.8-0.4-1.2-0.5c-0.5,0-0.9,0-1.3,0.2
			c-0.4,0.1-0.6,0.3-0.7,0.4l2.9-9.3c0.9-0.4,1.8-0.7,2.8-0.9c1-0.2,2-0.3,2.9-0.3c1.3,0,2.6,0.2,3.8,0.6c1.2,0.4,2.1,1.1,2.8,2.1
			s1.1,2.2,1.1,3.7V28C349.3,28,336.8,28,336.8,28z"/>
		<path class="st0" d="M366.6,19.9c1.3,0,2.3-0.2,3-0.7s1.1-1.1,1.1-1.9l11.1,3.6c-0.4,1.5-1.3,2.9-2.8,4.1
			c-1.4,1.2-3.2,2.2-5.3,2.9s-4.5,1.1-7.2,1.1c-2.3,0-4.4-0.3-6.3-0.8c-2-0.5-3.7-1.3-5.1-2.3c-1.5-1-2.6-2.3-3.5-3.8
			c-0.8-1.5-1.3-3.3-1.3-5.4c0-2,0.4-3.8,1.3-5.4c0.8-1.5,2-2.8,3.5-3.8s3.2-1.8,5.2-2.3s4.1-0.8,6.3-0.8c2.3,0,4.4,0.3,6.3,0.8
			s3.6,1.3,4.9,2.3c1.4,1,2.4,2.4,3.2,4c0.8,1.6,1.1,3.5,1.1,5.7h-19.7l0,0c0,0.4,0.1,0.7,0.3,1c0.2,0.3,0.5,0.6,0.8,0.8
			s0.8,0.4,1.3,0.5C365.3,19.8,365.9,19.9,366.6,19.9L366.6,19.9z M366.5,13.7c-1.2,0-2.1,0.2-2.9,0.6c-0.8,0.4-1.2,1-1.2,1.8v0.1
			h8.1l0,0v-0.1c0-0.4-0.1-0.7-0.3-1c-0.2-0.3-0.5-0.6-0.8-0.8c-0.4-0.2-0.8-0.4-1.3-0.5C367.6,13.8,367.1,13.7,366.5,13.7z"/>
		<path class="st0" d="M395.6,5.7V28h-12.5V5.7H395.6z M395.5,19.4l1.9-9.7c0.2-1,0.6-1.9,1.3-2.6c0.6-0.7,1.4-1.2,2.2-1.6
			c0.9-0.4,1.8-0.6,2.7-0.7c0.9-0.1,1.8,0,2.5,0.1c0.8,0.2,1.4,0.4,1.8,0.8l-2.7,13.4c-0.7-0.6-1.5-1-2.5-1.2s-2-0.3-3-0.2
			c-1,0.1-1.9,0.2-2.7,0.5C396.3,18.6,395.8,19,395.5,19.4L395.5,19.4z"/>
	</g>
</g>
</svg>
