<?xml version="1.0" encoding="UTF-8"?><svg id="Layer_2" xmlns="http://www.w3.org/2000/svg" viewBox="0 0 210.37179 264.36524"><g id="Layer_1-2"><g><path d="m145.86282,155.75785c9.78037-.82349,19.72452-1.3069,29.32707.72404,9.60255,2.03094,18.9467,6.84602,24.65129,14.83296,4.51772,6.32522,6.45448,14.16088,7.17616,21.90022,1.61268,17.29434-2.54236,35.07718-11.65149,49.86632-1.30635,2.12092-2.73179,4.20554-4.59786,5.85557-2.36997,2.09559-5.32881,3.38662-8.25915,4.57884-17.52489,7.13009-36.65177,11.96957-55.32422,8.9201-18.67246-3.04947-36.69205-15.39588-42.14421-33.5131-1.35669-4.50821-2.01194-9.51375-4.37291-13.66409-7.87016-13.82505.0952-38.08726,10.72047-48.81801,10.52654-10.63104,26.01806-12.95393,40.28422-11.04883" style="fill:none; stroke:#c1272d; stroke-miterlimit:10; stroke-width:2px;"/><path d="m67.81996,117.09073c-22.68152-.17986-50.68152,5.82014-63.68152,27.82014-4,8-4,17-1,25,5,16,14,30,28,40,14,9,33,13,46.39508.60411" style="fill:none; stroke:#c1272d; stroke-miterlimit:10; stroke-width:2px;"/><path d="m77.53352,117.08683c20.46978,1.49397,49.01024,12.64641,46.52651,38.02842" style="fill:none; stroke:#c1272d; stroke-miterlimit:10; stroke-width:2px;"/><path d="m116.02624,5.55422c-7.19425,10.98636-13.69948,22.42385-19.46478,34.22294-4.39306,8.99071-8.35411,18.1849-12.31326,27.37495-2.43162,5.64432-4.86324,11.28863-7.29486,16.93295-1.65824,3.84914-3.33138,7.74869-3.98315,11.88884-.72848,4.62751-.16697,9.47406-1.63883,13.92133-1.83486,5.54411-6.76789,10.53112-5.6145,16.25594.76275,3.78585,6.85139,5.13779,9.80849,2.65384,3.22709-2.71074,2.49998-7.72493,2.09838-11.92028-1.01291-10.58135,1.93681-21.0987,4.91144-31.30373,2.88186-9.88676,5.83582-19.81178,10.35453-29.06566,4.17346-8.54684,9.62146-16.39727,15.04688-24.20951,3.20718-4.61814,6.54493-9.36332,11.30733-12.3521-2.29225,6.87561,2.61951,13.81408,4.76197,20.73783,1.81067,5.85151,1.62726,12.10806,1.41664,18.22969-.31854,9.25866-.65887,18.56011.4247,27.76067.59677,5.06714,1.62441,10.09218,1.83181,15.19012.4411,10.842-2.83678,21.71762-1.28341,32.45682,1.23965,8.57026,5.4847,16.46049,6.95342,24.99448.7009,4.07257.78789,8.34685,2.56699,12.07671s6.01913,6.7687,9.93252,5.44111c2.5654-5.58285,1.64468-12.15134-.22691-18.0034s-4.64279-11.44654-5.73958-17.49191c-.78705-4.33806-.68683-8.77983-.73607-13.18843-.4425-39.62046-13.13372-79.05881-7.74467-118.31355.26511-1.93109.55449-3.99614-.2969-5.74956-1.20491-2.48149-4.39249-3.46142-7.10735-2.97238s-6.45964,2.12449-7.97085,4.43227Z" style="fill:none; stroke:#006837; stroke-miterlimit:10; stroke-width:2px;"/><g><g><path d="m173.58396,77.51029c-.10401,4.99715-.8089,10.18467-3.46539,14.52359-2.32922,3.80437-6.27894,6.79827-10.8349,7.05861-1.30439.07454-1.26653,1.8682,0,2,9.72377,1.01192,16.83311,10.1194,15.42122,19.80766-.18047,1.23838,1.65456,1.81769,1.92856.53168,1.79601-8.42962,5.98281-19.00029,15.90902-20.04774,1.01246-.10684,1.47864-1.79362.26584-1.96428-10.42871-1.46746-17.97041-11.12696-16.42636-21.65438.18466-1.25902-1.74217-1.80247-1.92856-.53168-.83488,5.69226.54271,11.55031,4.06965,16.13554,3.32937,4.32837,8.35305,7.21915,13.75359,7.97908l.26584-1.96428c-4.73303.49945-8.85201,3.1482-11.77155,6.8459-3.33677,4.22614-4.95957,9.47694-6.06603,14.67016l1.92856.53168c.78765-5.40482-.58228-10.9177-4.00721-15.207-3.26973-4.09492-8.16436-6.59347-13.34256-7.13234v2c5.03242-.28757,9.38439-3.29953,12.15281-7.41238,3.17767-4.72085,4.03154-10.59838,4.14749-16.16982.0268-1.2875-1.97321-1.28732-2,0h0Z" style="fill:#2c2c2c;"/><path d="m157.59366,117.52139c.58649,6.98342-3.78061,13.93327-10.43334,16.26152-1.20112.42035-.71328,2.30725.53168,1.92856,3.01349-.91664,5.76419,1.48875,7.0929,3.9992,1.52361,2.87869,2.03136,6.18991,3.34128,9.16564.4901,1.11335,2.00065.25629,1.82775-.77056-.87385-5.1897,2.19982-10.44649,6.98214-12.49009.99331-.42446.37535-1.80541-.50472-1.86347-2.75219-.18158-4.96713-2.23072-6.10661-4.63997-1.38684-2.93224-1.28359-6.33538-1.02409-9.48943.10554-1.28278-1.89503-1.27582-2,0-.3081,3.74471-.28202,7.77627,1.6312,11.13666,1.57512,2.76655,4.27765,4.78017,7.4995,4.99274l-.50472-1.86347c-5.66184,2.41944-8.91335,8.73805-7.90126,14.74871l1.82775-.77056c-1.54754-3.51551-1.94657-7.60098-4.34029-10.71505-1.95065-2.53766-5.11381-4.35406-8.35252-3.36891l.53168,1.92856c7.44585-2.60582,12.56523-10.28884,11.90166-18.19008-.10693-1.27327-2.10789-1.28465-2,0h0Z" style="fill:#2c2c2c;"/></g><path d="m199.11896,114.13799c1.2869,0,1.28904-2,0-2-1.2869,0-1.28904,2,0,2h0Z" style="fill:#2c2c2c;"/><path d="m198.03526,114.39829c-.23847,4.13622-4.50639,6.24559-7.75182,7.83523-.86425.42332-.47854,1.96435.50472,1.86347,4.51979-.46373,6.83719,4.0634,7.85172,7.74564.24306.88217,1.77805,1.0204,1.92856,0,.47876-3.24585,2.2155-7.20907,6.08142-7.12324,1.1681.02593,1.30324-1.61228.26584-1.96428-3.56614-1.21003-6.24952-4.59413-6.57734-8.35342-.11096-1.27239-2.11198-1.28412-2,0,.40904,4.69071,3.57955,8.76658,8.04566,10.28198l.26584-1.96428c-4.76004-.10568-7.39542,4.42506-8.00998,8.59156h1.92856c-.66895-2.42795-1.63952-4.87018-3.43064-6.69911-1.6433-1.67799-3.97501-2.75849-6.34964-2.51485l.50472,1.86347c4.00405-1.96122,8.45583-4.59208,8.74238-9.56217.07413-1.28583-1.92611-1.28157-2,0h0Z" style="fill:#2c2c2c;"/><path d="m199.95533,113.83201c.00393-.00511.00748-.01047.01042-.01621.04183-.08164.07975-.16638.10697-.25397.00159-.0051.00256-.01028.00344-.01554-.00755.04548.03059-.18405.03641-.27273.00022-.0033.00027-.0066.00017-.0099-.0028-.09426-.02191-.18776-.03717-.28072-.00098-.006-.00243-.01192-.00427-.01771-.00083-.00261-.00174-.0052-.00272-.00776-.01586-.04132-.0391-.09285-.05194-.12328-.01063-.02518-.03355-.08233-.05164-.1223-.0026-.00574-.00545-.01134-.00868-.01676-.00309-.00519-.00649-.01015-.01007-.01501-.03989-.05417-.11576-.15112-.15766-.20409-.00089-.00112-.00176-.00225-.00265-.00336-.00225-.00278-.00459-.00549-.007-.00813-.00435-.00476-.00895-.00928-.01379-.01354-.06822-.06009-.14198-.11392-.21575-.16703-.00458-.0033-.00932-.00637-.01422-.00918-.04134-.02373-.1067-.04626-.13623-.05872-.02374-.01002-.09009-.04319-.13488-.05581-.00259-.00073-.00521-.00138-.00784-.00194-.00131-.00028-.00262-.00053-.00394-.00077-.00131-.00023-.00263-.00044-.00395-.00063l-.26584-.03572c-.00661-.00073-.01314-.00129-.01979-.00098-.09513.00435-.19078.01653-.28351.03815-.00327.00076-.00649.0017-.00966.0028-.0838.02925-.16543.06602-.24554.10343-.00683.00319-.01322.0068-.01935.01122-.11654.06284-.21006.14869-.28057.25756-.08839.09658-.14805.20994-.17899.34007-.04167.13292-.04763.26584-.01786.39876.00604.13308.04559.25702.11867.3718l.15636.20239c.12477.12394.27186.20966.44127.25717l.26584.03572c.18051-.00056.34875-.04607.50472-.13653.00638-.0046.01308-.00848.02029-.01163l-.23888.10081c.00812-.00334.01647-.00557.02516-.00676l-.26584.03572c.00926-.00107.01844-.00092.02768.00031l-.26584-.03572c.01076.00162.02111.00462.03117.00874l-.23888-.10081c.01296.00553.02497.01275.03614.02133l-.20239-.15636c.01184.00933.02242.01998.03168.03186l-.15636-.20239c.00855.01125.01574.02333.02127.03633l-.10081-.23888c.00439.01072.00752.02178.00911.03327l-.03572-.26584c.00111.00925.00117.01845.00001.0277l.03572-.26584c-.00127.00866-.00356.01696-.00696.02503l.10081-.23888c-.00349.00782-.00785.01502-.01306.02181-.07308.11478-.11263.23872-.11867.3718-.02977.13292-.02381.26584.01786.39876.03094.13013.0906.24349.17899.34007.07051.10886.16403.19472.28057.25756l.23888.10081c.17723.04763.35445.04763.53168,0l.23888-.10081c.15027-.0889.26985-.20849.35875-.35875h0Z" style="fill:#2c2c2c;"/></g></g></g></svg>