<?xml version="1.0" encoding="UTF-8"?><svg id="Layer_2" xmlns="http://www.w3.org/2000/svg" viewBox="0 0 610.89404 55.00049"><g id="Layer_1-2"><g><path d="m33.7998,2.2998h24.8999v45.00049h-24.8999v-14.64062c0-.03906-.01025-.06934-.02979-.08984-.021-.01953-.05078-.02979-.09033-.02979h-8.21973c-.04053,0-.06006.01025-.06006.02979v14.73047H.5V2.2998h24.8999v17.60986c0,.021.01953.03027.06006.03027h8.21973c.03955,0,.06934-.00928.09033-.03027.01953-.01953.02979-.04932.02979-.08984V2.2998Z" style="fill:none; stroke:#fff;"/><path d="m87.61963,33.73975c2.11963,0,3.75928-.37939,4.91992-1.14014,1.15967-.75928,1.75977-1.7998,1.7998-3.11963l18.54004,6.06006c-.72021,2.51953-2.25,4.81006-4.58984,6.86963-2.34033,2.06055-5.29053,3.69043-8.8501,4.89062-3.56055,1.2002-7.54053,1.7998-11.93994,1.7998-3.76025,0-7.27051-.41992-10.53027-1.25977-3.26025-.83984-6.11963-2.10938-8.57959-3.81055-2.46045-1.69922-4.39062-3.8291-5.79004-6.39014-1.40088-2.55908-2.1001-5.53955-2.1001-8.93994,0-3.39941.69922-6.37939,2.1001-8.93994,1.39941-2.55957,3.32959-4.68945,5.79004-6.39014,2.45996-1.69971,5.32959-2.96973,8.60986-3.81006,3.2793-.83984,6.77979-1.25977,10.5-1.25977,3.7998,0,7.29004.41992,10.46973,1.25977,3.18018.84033,5.91943,2.13037,8.22021,3.87012,2.2998,1.74023,4.08008,3.94043,5.33984,6.6001,1.26025,2.66064,1.89014,5.81055,1.89014,9.4502h-32.76025v.06006c0,.59961.15967,1.16016.48047,1.67969.31934.52051.76953.97021,1.34961,1.3501.57959.38037,1.29932.67041,2.16016.87012.85986.20068,1.84961.2998,2.97021.2998Zm-.12012-10.25977c-1.96045,0-3.58057.35059-4.85986,1.0498-1.28076.7002-1.92041,1.69043-1.92041,2.97021v.11963h13.43994c.03955,0,.06006-.00928.06006-.02979v-.08984c0-.63965-.17041-1.20947-.50977-1.70996-.34033-.5-.81006-.91992-1.41016-1.26025-.6001-.33936-1.31055-.6001-2.12988-.77979-.82031-.18018-1.70996-.27002-2.66992-.27002Z" style="fill:none; stroke:#fff;"/><path d="m128.2998,54.50049c.71875-.80078,1.41992-1.60059,2.09961-2.40039.67969-.80078,1.36914-1.60059,2.07031-2.40039.69922-.7998,1.38867-1.59961,2.07031-2.39941h-11.2207c-1.31982-4.16016-2.63965-8.30029-3.95996-12.42041-1.31982-4.11963-2.63965-8.25-3.95996-12.39014-1.31982-4.14014-2.64014-8.26953-3.95996-12.39014h22.02051c.71875,4.28076,1.42969,8.56055,2.12891,12.84033.69922,4.28027,1.41016,8.56006,2.13086,12.83984l.06055.35986c.03906-.11963.05859-.21924.05859-.2998.51953-2.87988,1.02148-5.74951,1.5-8.60986.48047-2.85938.9707-5.71973,1.4707-8.58008.5-2.85938.99023-5.70947,1.4707-8.55029h20.87891c-1.59961,4.96045-3.20898,9.90039-4.83008,14.82031-1.61914,4.91992-3.23047,9.83984-4.83008,14.76025-1.59961,4.91992-3.2207,9.85938-4.85938,14.82031h-20.33984Z" style="fill:none; stroke:#fff;"/><path d="m176.29883,47.30029V2.2998h24.89941v45.00049h-24.89941Z" style="fill:none; stroke:#fff;"/><path d="m223.69727,24.07959l-20.09961-4.31982V2.2998h20.09961v21.77979Z" style="fill:none; stroke:#fff;"/><path d="m226.09766,47.30029V10.09961h20.75977v37.20068h-20.75977Zm27.47949,0v-18.96045c0-1.15967-.29004-1.97998-.87012-2.45996s-1.26953-.73975-2.06934-.78027c-.80078-.03906-1.53027.06006-2.19043.30029-.66016.23975-1.07031.47998-1.22949.71973l4.7998-15.41992c2.91895-1.27979,6.0791-1.91992,9.47949-1.91992,1.68066,0,3.2793.20068,4.80078.6001,1.51953.40039,2.88867,1.02002,4.10938,1.85986,1.21973.83984,2.17969,1.9502,2.87988,3.33008s1.05078,3.02979,1.05078,4.9502v27.78027h-20.76074Zm27.12012,0v-18.96045c0-1.15967-.29004-1.97998-.87012-2.45996s-1.26953-.73975-2.06934-.78027c-.80078-.03906-1.53027.06006-2.19043.30029-.66016.23975-1.07031.47998-1.22949.71973l4.19922-15.41992c1.44043-.63916,2.99023-1.11914,4.65039-1.43994,1.65918-.31982,3.30957-.47998,4.9502-.47998,2.31934,0,4.48926.35986,6.50977,1.08008,2.01953.71973,3.66016,1.85986,4.91992,3.41992s1.88965,3.64014,1.88965,6.24023v27.78027h-20.75977Z" style="fill:none; stroke:#fff;"/><path d="m347.11719,20.17969c6,0,11.01953.26074,15.06055.78027,4.04004.52002,7.25977,1.33008,9.66016,2.42969,2.39941,1.10059,4.11914,2.50049,5.16016,4.2002,1.03906,1.70068,1.55957,3.71045,1.55957,6.02979,0,2.52002-.80957,4.75049-2.42969,6.69043-1.62012,1.94043-3.88086,3.56055-6.78027,4.86035-2.90039,1.2998-6.26074,2.2793-10.08008,2.93945-3.82031.66016-7.93066.99023-12.33008.99023-4.88086,0-9.32031-.36035-13.32031-1.08008s-7.40039-1.83008-10.19922-3.33008c-2.80078-1.5-4.89062-3.42969-6.27051-5.79004-1.37988-2.35986-1.92969-5.17969-1.64941-8.45996l25.61914-1.74023c-.32031,1.2002-.23047,2.2002.27051,3,.5.80078,1.29004,1.40088,2.37012,1.80029,1.08008.3999,2.28027.59961,3.59961.59961.7998,0,1.53027-.05957,2.19043-.17969s1.24902-.30029,1.76953-.54004c.51953-.24023.91992-.54932,1.2002-.93018.2793-.37939.41992-.81006.41992-1.29004,0-.95996-.49023-1.57959-1.46973-1.85986-.98047-.2793-2.41016-.41992-4.29004-.41992h-1.5c-5.91992,0-10.84082-.30957-14.75977-.93018-3.9209-.61963-7.02051-1.48975-9.30078-2.60986-2.2793-1.11963-3.89941-2.44971-4.85938-3.99023-.95996-1.53906-1.44043-3.27002-1.44043-5.18994,0-2.04004.54004-3.88965,1.62012-5.5498,1.08008-1.65967,2.61035-3.12012,4.58984-4.37988,1.98047-1.26025,4.2998-2.31006,6.95996-3.15039,2.66016-.83984,5.58008-1.479,8.76074-1.91992,3.17969-.43945,6.50977-.65967,9.98926-.65967,4.91992,0,9.33008.44043,13.23047,1.31982,3.89941.88037,7.17969,2.14014,9.83984,3.77979,2.66016,1.64062,4.56934,3.6001,5.73047,5.88037,1.15918,2.27979,1.43945,4.84033.83984,7.67969l-24.78027,1.14014c.43945-1.15967.41992-2.10938-.05957-2.8501-.48047-.73975-1.23047-1.27979-2.25-1.62012-1.02051-.33936-2.1709-.50977-3.4502-.50977-.80078,0-1.52051.07031-2.16016.20996-.64062.14062-1.19043.34033-1.65039.6001-.45996.26074-.82031.56982-1.08008.92969-.25977.36035-.38965.74072-.38965,1.14014,0,.47998.15918.87012.48047,1.16992.31934.30029.80957.51025,1.46973.63037.66016.11963,1.53027.17969,2.60938.17969h1.5Z" style="fill:none; stroke:#fff;"/><path d="m393.22656,9.29004c3.41992-.66016,6.84863-.99023,10.29004-.99023,3.35938,0,6.59961.3208,9.71973.95996,3.12012.64014,5.91016,1.62012,8.37012,2.93994,2.45996,1.32031,4.41016,2.96094,5.84961,4.91992,1.44043,1.96045,2.16016,4.26025,2.16016,6.90039v23.28027h-21v-12.60059c0-.71973-.24023-1.29932-.71973-1.73975-.48047-.43994-1.06055-.75-1.74023-.93018-.68066-.18018-1.36035-.27002-2.04004-.27002-1.52051,0-2.66992.2998-3.4502.8999s-1.16992,1.28076-1.16992,2.04004c0,.76025.39941,1.4502,1.2002,2.07031.7998.62061,1.93945.92969,3.41992.92969.71973,0,1.53906-.13965,2.45996-.41992.91992-.2793,1.62012-.99951,2.09961-2.16016-.83984,1.96045-1.68945,3.9209-2.5498,5.88086s-1.70996,3.91992-2.5498,5.87988c-1.44043.71973-2.9502,1.22949-4.53027,1.5293-1.58008.30078-3.14941.4502-4.70996.4502-1.88086,0-3.68945-.25-5.42969-.75s-3.2998-1.22949-4.67969-2.18945c-1.38086-.95996-2.4707-2.16016-3.27051-3.60059-.80078-1.43945-1.2002-3.12012-1.2002-5.04004,0-1.15967.2002-2.2998.60059-3.41992.39941-1.11963.99902-2.17969,1.7998-3.18018.7998-.99902,1.80957-1.87939,3.03027-2.63965,1.21973-.75977,2.66992-1.3501,4.34961-1.77002,1.67969-.42041,3.59961-.63037,5.75977-.63037,1.40039,0,2.76074.11084,4.08008.33008,1.32031.22021,2.57031.55029,3.75.99023,1.17969.44043,2.24023.98047,3.18066,1.61963.93848.64062,1.70996,1.36035,2.30957,2.16016v-.54004c0-1.23926-.31055-2.31006-.92969-3.20996-.62109-.8999-1.46094-1.63965-2.52051-2.21973-1.06055-.57959-2.28027-1.00977-3.66016-1.29004-1.37988-.27979-2.83008-.42041-4.34961-.42041-2.36035,0-4.74023.30029-7.13965.90039-2.40039.59961-4.5,1.47998-6.30078,2.63965v-14.33984c2.91992-1.31982,6.09082-2.31006,9.51074-2.96973Z" style="fill:none; stroke:#fff;"/><path d="m452.71582,10.09961v37.20068h-20.75977V10.09961h20.75977Zm-.05957,22.92041l3.23926-16.14014c.36035-1.71924,1.07031-3.1499,2.12988-4.29004s2.31055-2.01025,3.74951-2.60986c1.44043-.6001,2.91992-.96973,4.44043-1.11035,1.51953-.13965,2.91895-.07959,4.2002.18018,1.2793.26074,2.2998.68994,3.05957,1.29004l-4.55957,22.31982c-1.16113-.95996-2.57031-1.61963-4.23047-1.97998-1.66016-.35986-3.33008-.48926-5.00928-.38965-1.67969.1001-3.16016.38965-4.43945.86963-1.28125.47998-2.14062,1.10059-2.58008,1.86035Z" style="fill:none; stroke:#fff;"/><path d="m484.54639,9.29004c3.41992-.66016,6.84863-.99023,10.29004-.99023,3.35938,0,6.59961.3208,9.71973.95996,3.12012.64014,5.91016,1.62012,8.37012,2.93994,2.45996,1.32031,4.41016,2.96094,5.84961,4.91992,1.44043,1.96045,2.16016,4.26025,2.16016,6.90039v23.28027h-21v-12.60059c0-.71973-.24023-1.29932-.71973-1.73975-.48047-.43994-1.06055-.75-1.74023-.93018-.68066-.18018-1.36035-.27002-2.04004-.27002-1.52051,0-2.66992.2998-3.4502.8999s-1.16992,1.28076-1.16992,2.04004c0,.76025.39941,1.4502,1.2002,2.07031.7998.62061,1.93945.92969,3.41992.92969.71973,0,1.53906-.13965,2.45996-.41992.91992-.2793,1.62012-.99951,2.09961-2.16016-.83984,1.96045-1.68945,3.9209-2.5498,5.88086s-1.70996,3.91992-2.5498,5.87988c-1.44043.71973-2.9502,1.22949-4.53027,1.5293-1.58008.30078-3.14941.4502-4.70996.4502-1.88086,0-3.68945-.25-5.42969-.75s-3.2998-1.22949-4.67969-2.18945c-1.38086-.95996-2.4707-2.16016-3.27051-3.60059-.80078-1.43945-1.2002-3.12012-1.2002-5.04004,0-1.15967.2002-2.2998.60059-3.41992.39941-1.11963.99902-2.17969,1.7998-3.18018.7998-.99902,1.80957-1.87939,3.03027-2.63965,1.21973-.75977,2.66992-1.3501,4.34961-1.77002,1.67969-.42041,3.59961-.63037,5.75977-.63037,1.40039,0,2.76074.11084,4.08008.33008,1.32031.22021,2.57031.55029,3.75.99023,1.17969.44043,2.24023.98047,3.18066,1.61963.93848.64062,1.70996,1.36035,2.30957,2.16016v-.54004c0-1.23926-.31055-2.31006-.92969-3.20996-.62109-.8999-1.46094-1.63965-2.52051-2.21973-1.06055-.57959-2.28027-1.00977-3.66016-1.29004-1.37988-.27979-2.83008-.42041-4.34961-.42041-2.36035,0-4.74023.30029-7.13965.90039-2.40039.59961-4.5,1.47998-6.30078,2.63965v-14.33984c2.91992-1.31982,6.09082-2.31006,9.51074-2.96973Z" style="fill:none; stroke:#fff;"/><path d="m523.27588,47.30029V2.2998h20.75977v45.00049h-20.75977Zm27.12012,0v-18.66064c0-1.15967-.29102-1.99951-.87012-2.52002-.58008-.51904-1.27051-.81006-2.07031-.86963-.80078-.06006-1.53027.01025-2.18945.20996-.66016.20068-1.07129.41992-1.23047.65967l4.7998-15.41992c1.44043-.63916,2.97949-1.11914,4.62012-1.43994,1.63965-.31982,3.25977-.47998,4.86035-.47998,2.23926,0,4.3291.35986,6.26953,1.08008,1.93945.71973,3.51953,1.85986,4.74023,3.41992,1.21973,1.56006,1.83008,3.64014,1.83008,6.24023v27.78027h-20.75977Z" style="fill:none; stroke:#fff;"/><path d="m585.49463,34.63965V2.2998h24.89941v32.33984h-24.89941Zm24.89941,0v12.66064h-24.89941v-8.2207c4.15918-.75928,8.31934-1.5,12.47949-2.21973,4.16016-.72021,8.2998-1.45996,12.41992-2.22021Z" style="fill:none; stroke:#fff;"/></g></g></svg>