<?xml version="1.0" encoding="UTF-8"?><svg id="Layer_2" xmlns="http://www.w3.org/2000/svg" viewBox="0 0 224.16992 31.53613"><g id="Layer_1-2"><g><path d="m22.7876,0c2.23242,0,4.18164.30566,5.8501.91797,1.66797.6123,3.04785,1.44043,4.14014,2.48438,1.0918,1.04395,1.91357,2.22559,2.46582,3.5459.55176,1.32031.82812,2.6875.82812,4.10352,0,1.5127-.28223,2.94629-.84619,4.30176-.56396,1.35645-1.40381,2.5625-2.52002,3.61816-1.11572,1.05664-2.50195,1.89062-4.15771,2.50195-1.65625.6123-3.57666.91797-5.76025.91797h-7.73975c-.02441.02441-.04248.03613-.0542.03613-.01221,0-.01807.0127-.01807.03613v4.53613H0V0h22.7876Zm-4.42773,14.58008c.71973,0,1.32568-.12598,1.81787-.37793.4917-.25195.85791-.57617,1.09814-.97168.23975-.39648.35986-.79785.35986-1.20605,0-.43262-.12012-.83398-.35986-1.20605-.24023-.37207-.6001-.67773-1.08008-.91797-.48047-.24023-1.09229-.36035-1.83594-.36035h-3.31201c-.02441,0-.04248.00586-.0542.01758-.01221.0127-.01807.03027-.01807.05469v4.93164c.02393,0,.04785.0127.07227.03613h3.31201Z" style="fill:#fff;"/><path d="m49.53564,4.67969v22.32031h-12.45557V4.67969h12.45557Zm-.03564,13.75195l1.94385-9.68359c.21582-1.03125.6416-1.88965,1.27783-2.57422.63574-.68359,1.38623-1.20605,2.25-1.56543.86426-.36035,1.75195-.58203,2.66406-.66602s1.75195-.04785,2.52002.10742c.76807.15625,1.37988.41406,1.83594.77441l-2.73584,13.3916c-.69629-.57617-1.54248-.97168-2.53809-1.1875-.99609-.2168-1.99805-.29395-3.00586-.23438-1.00781.06055-1.896.23438-2.66406.52246-.76855.28711-1.28418.66016-1.54785,1.11523Z" style="fill:#fff;"/><path d="m77.72266,28.08008c-1.48828,0-2.92773-.1084-4.31836-.32422-1.39258-.21582-2.68945-.5459-3.88867-.99023-1.2002-.44336-2.29248-1.00098-3.27588-1.67383-.98438-.67188-1.82422-1.45801-2.52002-2.35742-.69629-.90039-1.23633-1.91992-1.62012-3.06055-.38428-1.13965-.57617-2.40527-.57617-3.79785,0-1.63184.27002-3.10156.81006-4.41016.54004-1.30762,1.30811-2.45312,2.3042-3.4375.99561-.98438,2.16553-1.80566,3.50977-2.4668,1.34375-.65918,2.8252-1.15137,4.44629-1.47559,1.61914-.32422,3.33008-.48633,5.12891-.48633,2.25586,0,4.36328.25879,6.31836.77441,1.95703.5166,3.67188,1.28418,5.14844,2.30371,1.47656,1.02051,2.63281,2.29883,3.47461,3.83398.83984,1.53613,1.25977,3.32422,1.25977,5.36426s-.41992,3.82227-1.25977,5.3457c-.8418,1.52441-1.99805,2.79688-3.47461,3.81641-1.47656,1.02051-3.19141,1.78223-5.14844,2.28613-1.95508.50391-4.0625.75586-6.31836.75586Zm.03711-9.54004c1.48828,0,2.54297-.28809,3.16797-.86426.62305-.57617.93555-1.19922.93555-1.87207,0-.31152-.07227-.62305-.21484-.93555-.14453-.31152-.37305-.59961-.68555-.86426-.31055-.26367-.73242-.47363-1.25977-.62988s-1.17578-.23438-1.94336-.23438c-.76953,0-1.42188.07812-1.96289.23438-.53906.15625-.9707.36621-1.29492.62988-.32422.26465-.55859.55273-.70312.86426-.14258.3125-.21484.63574-.21484.97168,0,.33691.07227.66602.21484.99023.14453.32422.38477.6123.7207.86426s.76758.45605,1.29688.61133c.52734.15625,1.17383.23438,1.94336.23438Z" style="fill:#fff;"/><path d="m95.00293,14.43555V4.67969h12.45605v7.12793l-.03613.03613c-2.06445.43262-4.13379.86426-6.20996,1.2959-2.07617.43262-4.14551.86426-6.20996,1.2959Zm0,17.10059V14.43555h12.45605v14.58008l-12.45605,2.52051Z" style="fill:#fff;"/><path d="m124.81055,18.86426c1.27246,0,2.25586-.22852,2.95215-.68457.69629-.45508,1.05566-1.08008,1.08008-1.87207l11.12402,3.63672c-.43164,1.51172-1.34961,2.88574-2.75391,4.12207s-3.1748,2.21387-5.31055,2.93359-4.52344,1.08008-7.16406,1.08008c-2.25586,0-4.36133-.25195-6.31738-.75586-1.95703-.50391-3.67188-1.26562-5.14844-2.28613-1.47559-1.01953-2.63379-2.29785-3.47363-3.83398-.84082-1.53613-1.25977-3.32422-1.25977-5.36426,0-2.03906.41895-3.82812,1.25977-5.36426.83984-1.53516,1.99805-2.81348,3.47363-3.83398,1.47656-1.01953,3.19824-1.78125,5.16602-2.28516,1.96777-.50488,4.06836-.75684,6.2998-.75684,2.28027,0,4.37402.25195,6.28223.75684,1.9082.50391,3.55176,1.27734,4.93262,2.32129,1.37988,1.04395,2.44727,2.36426,3.20312,3.95996.75684,1.59668,1.13477,3.48633,1.13477,5.66992h-19.65625v.03613c0,.36035.0957.69629.28809,1.00781.19141.3125.46191.58301.80957.81055.34766.22852.78027.40234,1.2959.52148.5166.12109,1.11035.18066,1.78223.18066Zm-.07227-6.15625c-1.17578,0-2.14746.20996-2.91602.62988-.76758.41992-1.15137,1.01465-1.15137,1.78223v.07227h8.06348c.02441,0,.03613-.00586.03613-.01855v-.05371c0-.38379-.10254-.72559-.30566-1.02637-.2041-.2998-.48633-.55176-.8457-.75586-.36035-.20312-.78711-.36035-1.27832-.46777-.49219-.1084-1.02637-.16211-1.60254-.16211Z" style="fill:#fff;"/><path d="m157.13867,28.08008c-2.25586,0-4.36133-.25195-6.31738-.75586-1.95703-.50391-3.67188-1.26562-5.14844-2.28613-1.47559-1.01953-2.63379-2.29785-3.47363-3.83398-.84082-1.53613-1.25977-3.32422-1.25977-5.36426,0-1.05566.11328-2.03906.3418-2.95215.22754-.91113.55762-1.75781.99023-2.53809.43164-.7793.9541-1.49316,1.56543-2.1416.6123-.64844,1.30176-1.22363,2.07031-1.72754.9834-.64844,2.06348-1.18262,3.24023-1.60254,1.1748-.41992,2.44141-.73828,3.79785-.9541,1.35547-.21582,2.75391-.32422,4.19336-.32422,2.75977,0,5.25.37793,7.4707,1.13477,2.21973.75586,4.05566,1.88965,5.50781,3.40137,1.45215,1.5127,2.3584,3.4082,2.71777,5.68848l-11.55566,2.05176c0-.64844-.2041-1.17578-.6123-1.58398s-.92383-.70215-1.54785-.88184-1.28418-.27051-1.98047-.27051c-.76758,0-1.46973.10254-2.10547.30664-.63672.2041-1.13379.50391-1.49414.89941-.36035.39648-.54004.89453-.54004,1.49414,0,.45605.10156.85254.30566,1.18848s.49805.61816.88281.8457c.38281.22852.82715.39551,1.33203.50391.50391.1084,1.04395.16211,1.61914.16211.67188,0,1.32617-.08398,1.96289-.25195.63477-.16797,1.15723-.4502,1.56543-.8457.4082-.39648.6123-.91797.6123-1.56641,2.01562.24023,3.94727.48633,5.7959.73828,1.84766.25195,3.78027.50977,5.7959.77344-.28809,2.32812-1.14648,4.29004-2.57422,5.88672-1.42773,1.5957-3.27539,2.7959-5.54395,3.59961-2.26758.80371-4.80566,1.20605-7.61426,1.20605Z" style="fill:#fff;"/><path d="m174.12988,17.60352V4.6084l12.31152-2.95215v12.63574c0,.45605.10254.85254.30664,1.18848.20312.33594.49121.61816.86426.8457.37109.22852.80957.40234,1.31348.52148.50391.12109,1.06738.18066,1.69238.18066.69531,0,1.40332-.1084,2.12402-.32422.71973-.21582,1.37305-.51562,1.96191-.90039.58789-.38379,1.01367-.82812,1.27734-1.33203v10.94434c-1.03223.81641-2.36328,1.42188-3.99512,1.81836-1.63281.39551-3.26465.59375-4.89648.59375-2.47168,0-4.68652-.40234-6.6416-1.20605-1.95703-.80371-3.49902-1.96777-4.62598-3.49219-1.12891-1.52344-1.69238-3.36621-1.69238-5.52637Zm12.34766-3.13184c.28809-1.10352.57031-2.19531.84668-3.27539.27539-1.08008.55176-2.16602.82812-3.25781.27539-1.09277.54492-2.17871.80957-3.25879h7.01953v9.79199h-9.50391Z" style="fill:#fff;"/><path d="m197.0625,11.80762c0-1.36719.38965-2.55566,1.16992-3.56348.7793-1.00781,1.8418-1.85449,3.18555-2.53809s2.86816-1.19336,4.57227-1.53027c1.7041-.33594,3.47949-.50391,5.32812-.50391,2.2793,0,4.39746.2041,6.35352.6123s3.72656.94824,5.31055,1.62012v8.35156c-.67285-.50391-1.55469-.93555-2.64648-1.2959s-2.24414-.63574-3.45605-.82812c-1.21191-.19141-2.35742-.28809-3.4375-.28809-.7207,0-1.37402.04199-1.96191.12598-.58887.08496-1.05664.21094-1.4043.37793-.34863.16895-.52246.38477-.52246.64844,0,.14355.05469.25195.16211.32422.1084.07129.27051.12012.48633.14355.21582.02441.49121.03613.82812.03613h2.91602c1.19922,0,2.40527.07812,3.61816.23438,1.21094.15625,2.31543.46191,3.31152.91797s1.79395,1.11035,2.39453,1.96191c.59961.85156.89941,1.97363.89941,3.36621,0,1.46387-.40234,2.70605-1.20605,3.72559-.80371,1.02051-1.89551,1.84863-3.27539,2.48438-1.38086.63574-2.92871,1.09766-4.64453,1.38574s-3.49805.43164-5.3457.43164c-2.18457,0-4.33789-.2041-6.46191-.61133-2.12402-.4082-3.94238-1.00879-5.4541-1.80078v-8.78418c.59961.64844,1.45801,1.18262,2.57422,1.60254,1.11523.41992,2.32715.73242,3.63574.93555,1.30762.2041,2.53809.30664,3.69043.30664.74316,0,1.41504-.04199,2.01562-.12598.59961-.08398,1.07324-.21582,1.42188-.39648.34766-.17969.52246-.41406.52246-.70215,0-.11914-.03613-.20312-.1084-.25195-.07227-.04785-.18652-.08398-.3418-.10742-.15625-.02344-.36621-.03613-.62988-.03613h-2.16016c-.84082,0-1.77051-.03027-2.79004-.08984-1.02051-.05957-2.03418-.19238-3.04199-.39648-1.00781-.20312-1.92578-.52734-2.75391-.97168s-1.49414-1.05566-1.99805-1.83594-.75586-1.75781-.75586-2.93457Z" style="fill:#fff;"/></g></g></svg>