<?xml version="1.0" encoding="utf-8"?>
<!-- Generator: Adobe Illustrator 27.2.0, SVG Export Plug-In . SVG Version: 6.00 Build 0)  -->
<svg version="1.1" id="Layer_2_00000132809959187933219290000010419886355516899002_"
	 xmlns="http://www.w3.org/2000/svg" xmlns:xlink="http://www.w3.org/1999/xlink" x="0px" y="0px" viewBox="0 0 261.5 36.8"
	 style="enable-background:new 0 0 261.5 36.8;" xml:space="preserve">
<style type="text/css">
	.st0{fill:none;stroke:#FFFFFF;stroke-width:0.75;stroke-miterlimit:10;}
</style>
<g id="Layer_1-2">
	<g>
		<path class="st0" d="M27.2,0.5c2.6,0,5,0.4,7.3,1c2.3,0.7,4.3,1.6,6,2.8s3.1,2.5,4,4s1.6,3,1.4,4.5C45.7,14.5,45,16,44,17.5
			s-2.3,2.8-3.8,4s-3.3,2.1-5.4,2.8c-2.1,0.7-4.4,1.1-7,1.1c-3.6,0-5.5,0.1-9.2,0.1h-0.1l0,0c-0.3,2.1-0.4,3.1-0.5,5.2
			C11.1,31,7.6,31,0.5,31.1c0-1.8,0-3.6,0-5.5s0-3.6,0-5.5c0-1.8,0-3.6,0-5.5s0-3.6,0-5.5c0-1.5,0-2.9,0-4.4s0-2.9,0-4.3
			C11.2,0.5,16.5,0.5,27.2,0.5L27.2,0.5z M23.7,16.8c0.9,0,1.7-0.2,2.3-0.4c0.6-0.3,1.1-0.6,1.5-1.1c0.3-0.4,0.5-0.9,0.6-1.3
			c0.1-0.5-0.1-0.9-0.3-1.3c-0.3-0.4-0.7-0.8-1.4-1c-0.6-0.3-1.4-0.4-2.3-0.4c-1.7,0-2.5,0-4.2,0h-0.1c0,0,0,0,0,0.1
			c0.2,2.2-0.1,3.3-0.3,5.5h0.1C21.3,16.8,22.1,16.8,23.7,16.8L23.7,16.8z"/>
		<path class="st0" d="M61.1,5.8c0.5,1.6,0.8,3.2,0.9,4.8c0.1,1.6-0.2,3.2-0.6,4.7c-0.4,1.6-0.8,3.2-1.3,4.8c-0.5,1.7-1,3.4-1.4,5.1
			c-0.5,1.8-0.8,3.5-1,5.4c-5.6,0-8.5,0-14.2,0.1c0.3-2.8,1-5.6,1.6-8.2s1.2-5.2,1.7-7.8c0.3-1.5,0.4-2.9,0.2-4.4s-0.5-3-0.9-4.5
			C52.2,5.8,55.2,5.8,61.1,5.8L61.1,5.8z M59.9,20.9c2.1-4.2,3.8-6.3,4.4-10.5c0.2-1.1,0.5-2.1,1.1-2.8c0.6-0.8,1.3-1.3,2.2-1.7
			c0.9-0.4,1.8-0.6,2.9-0.7c1-0.1,2.1,0,3,0.1c1,0.2,1.8,0.5,2.5,0.9c0.6,6-1.7,8.7-4.8,14.6c-0.6-0.6-1.4-1.1-2.5-1.3
			c-1.1-0.2-2.2-0.3-3.4-0.3c-1.2,0.1-2.3,0.3-3.2,0.6C61,20,60.3,20.4,59.9,20.9z"/>
		<path class="st0" d="M89.6,31.9c-1.7,0-3.3-0.1-4.9-0.4s-3-0.6-4.4-1.2c-1.3-0.5-2.5-1.2-3.5-2s-1.7-1.7-2.2-2.7s-0.8-2.2-0.8-3.4
			c0-1.3,0.2-2.6,0.7-4.1c0.6-1.8,1.4-3.3,2.3-4.8c0.9-1.4,1.8-2.7,2.9-3.7c1.1-1.1,2.3-2,3.7-2.7c1.4-0.7,3-1.3,4.7-1.6
			c1.8-0.4,3.7-0.5,5.7-0.5c2.6,0,5.1,0.3,7.5,0.9s4.6,1.5,6.3,2.6c1.8,1.1,3.1,2.6,3.6,4.2c0.5,1.7,0.3,3.6-0.6,5.8
			s-2.2,4.1-3.6,5.8c-1.4,1.6-2.9,3.1-4.7,4.3c-1.8,1.2-3.7,2.1-5.8,2.6C94.5,31.6,92.1,31.9,89.6,31.9L89.6,31.9z M91.8,21.1
			c1.7,0,2.9-0.3,3.9-0.9c0.9-0.6,1.6-1.3,1.8-2c0.1-0.3,0.2-0.7,0.1-1c0-0.3-0.2-0.6-0.4-0.9C97,16,96.6,15.8,96,15.6
			c-0.5-0.2-1.2-0.3-2.1-0.3s-1.6,0.1-2.3,0.2c-0.7,0.2-1.2,0.4-1.7,0.7c-0.5,0.3-0.8,0.6-1.1,0.9c-0.3,0.3-0.5,0.7-0.6,1
			c-0.1,0.4-0.2,0.7-0.2,1.1s0.2,0.7,0.4,0.9c0.3,0.3,0.7,0.5,1.2,0.7C90.2,21,90.9,21.1,91.8,21.1z"/>
		<path class="st0" d="M112.6,16.8c0.7-1.7,1.3-3.5,1.6-5.3c0.2-1.8,0.2-3.6-0.2-5.4c5.6,0,8.5,0,14.1,0.1c0.2,0.9,0.2,1.8,0.2,2.7
			s-0.1,1.8-0.2,2.6c-0.1,0.9-0.4,1.7-0.7,2.6c0,0,0,0-0.1,0c-2.4,0.4-4.9,0.9-7.3,1.3C117.5,15.9,115,16.3,112.6,16.8L112.6,16.8z
			 M110.6,36.1c-0.9-1.8-1.4-3.5-1.5-5.2c-0.2-1.7,0-3.3,0.3-4.9s0.8-3.2,1.4-4.7c0.6-1.5,1.3-3.1,1.9-4.6c5.5,0,8.2,0.1,13.7,0.1
			c-1.1,2.6-2.4,5.2-2.9,7.9c-0.6,2.6-0.7,5.4,0.3,8.3C118.3,34.3,115.7,34.9,110.6,36.1L110.6,36.1z"/>
		<path class="st0" d="M143.5,21.8c1.4,0,2.6-0.2,3.5-0.7c1-0.5,1.6-1.1,2-2c4.3,1.6,6.4,2.4,11,4c-0.9,1.6-2.1,3.1-3.7,4.5
			c-1.6,1.4-3.3,2.5-5.6,3.3c-2.2,0.8-4.8,1.2-7.8,1.2c-2.6,0-5.1-0.3-7.4-0.9c-2.3-0.6-4.4-1.5-6.1-2.6c-1.7-1.2-2.9-2.6-3.4-4.3
			c-0.4-1.7-0.1-3.6,0.8-5.8s2.1-4.1,3.5-5.8s2.7-3.1,4.4-4.2s3.5-2,5.6-2.6s4.4-0.9,7-0.9s5,0.3,7.2,0.9s4.1,1.5,5.5,2.7
			s2.4,2.7,2.6,4.5c0.3,1.8-0.2,3.8-1.1,6.1c-8.7-0.1-13-0.1-21.6-0.2l0,0l0,0c-0.2,0.4-0.2,0.7-0.1,1.1c0.1,0.3,0.3,0.6,0.6,0.9
			c0.3,0.2,0.7,0.4,1.2,0.6C142.1,21.7,142.7,21.8,143.5,21.8L143.5,21.8z M146,15.2c-1.3,0-2.4,0.2-3.5,0.7c-1,0.4-1.7,1.1-2,1.9
			v0.1l0,0c3.5,0,5.3,0,8.8,0.1l0,0c0,0,0,0,0-0.1c0.2-0.4,0.2-0.8,0.1-1.1c-0.1-0.3-0.3-0.6-0.6-0.8c-0.3-0.2-0.7-0.4-1.2-0.5
			C147.2,15.3,146.7,15.2,146,15.2z"/>
		<path class="st0" d="M180.2,32.2c-2.7,0-5.3-0.3-7.8-0.9s-4.7-1.4-6.5-2.6c-1.8-1.1-3.2-2.6-3.8-4.2c-0.6-1.7-0.4-3.6,0.4-5.8
			c0.4-1.1,1-2.2,1.6-3.2s1.3-1.9,2.1-2.8c0.7-0.9,1.5-1.7,2.4-2.4c0.8-0.7,1.7-1.4,2.7-2c1.2-0.7,2.4-1.4,3.8-1.9
			c1.3-0.5,2.8-0.9,4.3-1.1c1.5-0.3,3.1-0.4,4.7-0.4c3.1,0,6,0.4,8.4,1.3s4.3,2.2,5.6,3.9c1.2,1.7,1.6,3.9,1.3,6.3
			c-5.6,0.9-8.4,1.3-13.9,2.2c0.2-0.7,0.2-1.3-0.1-1.7c-0.3-0.4-0.8-0.8-1.4-1c-0.6-0.2-1.3-0.3-2.1-0.3c-0.9,0-1.7,0.1-2.5,0.3
			c-0.8,0.2-1.5,0.5-2,1c-0.6,0.4-1,1-1.2,1.6c-0.2,0.5-0.2,0.9-0.1,1.3c0.1,0.4,0.3,0.7,0.7,0.9c0.4,0.2,0.8,0.4,1.4,0.5
			c0.5,0.1,1.1,0.2,1.8,0.2c0.8,0,1.5-0.1,2.3-0.3c0.8-0.2,1.5-0.5,2.1-0.9s1-1,1.2-1.7c2.2,0.3,4.3,0.5,6.4,0.8
			c2,0.3,4.2,0.6,6.5,0.9c-1,2.5-2.3,4.7-3.8,6.4c-1.5,1.7-3.4,3.1-5.8,4C186.3,31.7,183.5,32.2,180.2,32.2L180.2,32.2z"/>
		<path class="st0" d="M199.7,20.7c0.6-2.2,1.3-4.6,2-7.1s1.3-5,1.6-7.5c5.7-1.4,8.5-2.1,14.1-3.6c0,1.4,0,2.8-0.2,4.3
			c-0.2,1.4-0.4,2.9-0.8,4.3c-0.2,1-0.5,2-0.7,3s-0.4,2-0.7,2.9l0,0l0,0c-0.1,0.5-0.1,0.9,0.1,1.3c0.2,0.4,0.4,0.7,0.8,0.9
			c0.4,0.2,0.9,0.4,1.4,0.6c0.6,0.1,1.2,0.2,2,0.2s1.7-0.1,2.6-0.4c0.9-0.2,1.8-0.6,2.5-1c0.8-0.4,1.4-0.9,1.8-1.5
			c-0.9,4.8-1.5,7.2-0.5,12.1c-1.1,0.9-2.5,1.6-4.4,2c-1.8,0.4-3.7,0.7-5.7,0.7c-3,0-5.8-0.5-8.4-1.4c-2.6-0.9-4.8-2.2-6.3-3.9
			C199.5,25.1,199.1,23.1,199.7,20.7L199.7,20.7z M215,17.3c0.6-1.2,1.2-2.4,1.8-3.6s1.2-2.5,1.8-3.7c0.6-1.3,1.1-2.5,1.5-3.8
			c3.2,0,4.8,0,8.1,0c-0.5,4.6-1.1,6.8-1.9,11.1C221.7,17.3,219.5,17.3,215,17.3z"/>
		<path class="st0" d="M228.1,14.3c0.3-1.5,1-2.9,2.1-4.1s2.5-2.2,4.1-3s3.5-1.4,5.5-1.8s4.1-0.6,6.2-0.6c2.7,0,5.1,0.2,7.4,0.6
			c2.3,0.4,4.3,1,6.2,1.8c0,3.8-0.1,5.7-0.1,9.5c-0.8-0.6-1.9-1-3.3-1.4s-2.8-0.7-4.2-0.9c-1.5-0.2-2.9-0.3-4.2-0.3
			c-0.9,0-1.7,0.1-2.4,0.2c-0.7,0.1-1.3,0.3-1.7,0.4c-0.4,0.2-0.7,0.4-0.7,0.7c0,0.2,0,0.3,0.2,0.4c0.1,0.1,0.3,0.1,0.6,0.2
			c0.3,0,0.6,0,1,0c0.7,0,1.3,0,1.8,0s1.1,0,1.8,0c1.5,0,3,0.1,4.5,0.2c1.5,0.2,2.9,0.5,4.1,1c1.2,0.5,2.2,1.2,3,2.2
			s1.1,2.2,1.1,3.8c0,1.7-0.5,3.1-1.6,4.2c-1,1.2-2.4,2.1-4.1,2.8c-1.7,0.7-3.6,1.2-5.7,1.6c-2.1,0.3-4.2,0.5-6.5,0.5
			c-2.7,0-5.3-0.2-8-0.7c-2.7-0.5-5.1-1.1-7.1-2c-0.8-3.9-0.6-5.8,0-9.7c0.6,0.7,1.6,1.3,2.9,1.8c1.3,0.5,2.8,0.8,4.4,1
			c1.6,0.2,3.1,0.3,4.6,0.3c0.9,0,1.8-0.1,2.5-0.2c0.8-0.1,1.4-0.2,1.8-0.5c0.5-0.2,0.7-0.5,0.7-0.8c0-0.1,0-0.2-0.1-0.3
			c-0.1-0.1-0.2-0.1-0.4-0.1s-0.5,0-0.8,0c-0.5,0-0.9,0-1.4,0s-0.9,0-1.3,0c-1,0-2.2,0-3.5-0.1s-2.5-0.2-3.7-0.4
			c-1.2-0.2-2.3-0.6-3.2-1.1s-1.6-1.2-2.1-2C228,16.7,227.9,15.6,228.1,14.3z"/>
	</g>
</g>
</svg>
