<?xml version="1.0" encoding="utf-8"?>
<!-- Generator: Adobe Illustrator 27.2.0, SVG Export Plug-In . SVG Version: 6.00 Build 0)  -->
<svg version="1.1" id="Layer_2_00000179613309431474680180000005751557563654063518_"
	 xmlns="http://www.w3.org/2000/svg" xmlns:xlink="http://www.w3.org/1999/xlink" x="0px" y="0px" viewBox="0 0 417.8 41.6"
	 style="enable-background:new 0 0 417.8 41.6;" xml:space="preserve">
<style type="text/css">
	.st0{fill:#911F27;}
</style>
<g id="Layer_1-2">
	<g>
		<path class="st0" d="M23.3,15.5c3.9,0.7,5.8,1,9.7,1.5c-0.4,1.5-0.7,2.9-1,4.4c-0.3,1.4-0.7,2.9-1,4.3c-0.4,1.5-0.7,2.9-1,4.3
			s-0.7,2.9-1,4.3c-4.5-0.7-6.7-1.1-11.2-1.9c-0.6-3.7-0.9-5.6-1.4-9.3c0,0,0,0,0-0.1l0,0l0,0c-0.6,3.5-0.8,5.3-1.4,8.7
			c-4.2-0.8-6.2-1.3-10.4-2.2C4.3,28.2,4,27,3.7,25.7s-0.6-2.5-0.9-3.8s-0.6-2.5-0.9-3.8S1.3,15.6,1,14.3c-0.4-1.1-0.7-2.3-1-3.6
			c4.1,1,6.1,1.5,10.2,2.4c0.1,0.8,0.3,1.7,0.4,2.5c0.1,0.8,0.2,1.7,0.4,2.5c0.1,0.8,0.2,1.7,0.4,2.5c0.1,0.9,0.2,1.7,0.4,2.5h0.1
			l0,0c0.5-3.8,0.8-5.7,1.3-9.6c2.9,0.6,4.3,0.9,7.2,1.4c0.6,4,0.8,6.1,1.4,10.1l0,0l0,0c0.2-1.6,0.5-3.2,0.7-4.8
			C22.8,18.8,23.1,17.2,23.3,15.5z"/>
		<path class="st0" d="M42.8,30.8c0.8,0.1,1.5,0,2-0.2c0.5-0.3,0.7-0.6,0.7-1.2c3,1.3,4.4,1.9,7.4,3.1c-0.3,1-0.9,1.8-1.8,2.6
			c-0.9,0.7-2.1,1.3-3.5,1.6s-3,0.4-4.8,0.2c-1.5-0.2-2.9-0.5-4.2-1s-2.4-1.2-3.4-2s-1.8-1.8-2.3-2.9c-0.6-1.1-0.8-2.3-0.8-3.7
			s0.3-2.5,0.8-3.5c0.6-0.9,1.3-1.7,2.3-2.2s2.1-0.9,3.4-1.1c1.3-0.2,2.7-0.2,4.2,0s2.9,0.5,4.2,0.9c1.3,0.5,2.4,1.1,3.3,1.9
			c0.9,0.8,1.6,1.7,2.1,2.8c0.5,1.1,0.8,2.4,0.8,3.8c-5.2-0.4-7.8-0.7-13.1-1.3l0,0l0,0c0,0.2,0.1,0.5,0.2,0.7
			c0.1,0.2,0.3,0.4,0.5,0.6s0.5,0.3,0.9,0.4C41.9,30.7,42.3,30.8,42.8,30.8z M42.7,26.7c-0.8-0.1-1.4,0-1.9,0.2
			C40.3,27.2,40,27.5,40,28l0,0l0,0c2.1,0.3,3.2,0.4,5.4,0.6l0,0l0,0c0-0.3-0.1-0.5-0.2-0.7c-0.1-0.2-0.3-0.4-0.6-0.6
			c-0.2-0.2-0.5-0.3-0.9-0.4C43.5,26.9,43.1,26.8,42.7,26.7L42.7,26.7z"/>
		<path class="st0" d="M53.8,37.3v-18c3.3,0.3,5,0.4,8.3,0.6v18C58.7,37.7,57.1,37.6,53.8,37.3L53.8,37.3z"/>
		<path class="st0" d="M73.6,39.2c-1.5,0-2.9-0.3-4.2-0.7c-1.3-0.4-2.4-1-3.4-1.7s-1.8-1.6-2.3-2.7c-0.6-1.1-0.8-2.3-0.8-3.6
			c0-0.7,0.1-1.4,0.2-2c0.2-0.6,0.4-1.2,0.7-1.7c0.3-0.5,0.6-1,1-1.4s0.9-0.8,1.4-1.1c0.7-0.4,1.4-0.7,2.2-1
			c0.8-0.2,1.6-0.4,2.5-0.5s1.8-0.1,2.8-0.1c1.8,0.1,3.5,0.4,5,0.9s2.7,1.3,3.7,2.3s1.6,2.3,1.8,3.8c-3.1,0.5-4.6,0.8-7.7,1.2
			c0-0.4-0.1-0.8-0.4-1.1c-0.3-0.3-0.6-0.5-1-0.6S74.2,29,73.8,29c-0.5,0-1,0-1.4,0.2c-0.4,0.1-0.8,0.3-1,0.6
			c-0.2,0.3-0.4,0.6-0.4,1c0,0.3,0.1,0.6,0.2,0.8c0.1,0.2,0.3,0.4,0.6,0.6c0.3,0.2,0.6,0.3,0.9,0.4c0.3,0.1,0.7,0.1,1.1,0.1
			s0.9,0,1.3-0.1s0.8-0.3,1-0.5c0.3-0.3,0.4-0.6,0.4-1c1.3,0.2,2.6,0.4,3.9,0.6c1.2,0.2,2.5,0.4,3.9,0.6c-0.2,1.6-0.8,2.9-1.7,3.9
			c-1,1.1-2.2,1.8-3.7,2.3C77.1,39,75.5,39.2,73.6,39.2L73.6,39.2z"/>
		<path class="st0" d="M95.4,39.3c-1,0-2,0-2.9-0.2c-0.9-0.1-1.8-0.4-2.6-0.6c-0.8-0.3-1.5-0.7-2.2-1.1c-0.7-0.4-1.2-1-1.7-1.6
			s-0.8-1.3-1.1-2c-0.3-0.8-0.4-1.6-0.4-2.5c0-1.1,0.2-2.1,0.5-2.9c0.4-0.9,0.9-1.6,1.5-2.3c0.7-0.7,1.4-1.2,2.3-1.6s1.9-0.8,3-1
			s2.2-0.3,3.4-0.4c1.5,0,2.9,0.1,4.2,0.4c1.3,0.3,2.4,0.8,3.4,1.4c1,0.7,1.8,1.5,2.3,2.5c0.6,1,0.8,2.2,0.8,3.5
			c0,1.4-0.3,2.6-0.8,3.6c-0.6,1-1.3,1.9-2.3,2.6c-1,0.7-2.1,1.2-3.4,1.6C98.3,39.1,96.9,39.3,95.4,39.3L95.4,39.3z M95.4,33
			c1,0,1.7-0.2,2.1-0.6c0.4-0.4,0.6-0.8,0.6-1.3c0-0.2,0-0.4-0.1-0.6s-0.2-0.4-0.5-0.6c-0.2-0.2-0.5-0.3-0.8-0.4
			c-0.4-0.1-0.8-0.1-1.3-0.1s-0.9,0.1-1.3,0.2s-0.6,0.3-0.9,0.4c-0.2,0.2-0.4,0.4-0.5,0.6s-0.1,0.4-0.1,0.6s0,0.4,0.1,0.7
			c0.1,0.2,0.3,0.4,0.5,0.6s0.5,0.3,0.9,0.4C94.5,32.9,94.9,33,95.4,33z"/>
		<path class="st0" d="M106.9,38.3V23.5c3.3-0.1,5-0.2,8.3-0.4V38C111.9,38.1,110.3,38.2,106.9,38.3z M117.9,37.8v-7.6
			c0-0.5-0.1-0.8-0.3-1c-0.2-0.2-0.5-0.3-0.8-0.3s-0.6,0.1-0.9,0.2s-0.4,0.2-0.5,0.3c0.8-2.5,1.2-3.8,1.9-6.3c1.2-0.6,2.4-0.9,3.8-1
			c0.7,0,1.3,0,1.9,0.1s1.2,0.3,1.6,0.6c0.5,0.3,0.9,0.7,1.2,1.3c0.3,0.5,0.4,1.2,0.4,2v11.1C122.9,37.6,121.3,37.7,117.9,37.8z
			 M128.8,37.2v-7.6c0-0.5-0.1-0.8-0.3-1s-0.5-0.3-0.8-0.3s-0.6,0.1-0.9,0.2s-0.4,0.2-0.5,0.3c0.7-2.5,1-3.8,1.7-6.3
			c0.6-0.3,1.2-0.5,1.9-0.7s1.3-0.3,2-0.3c0.9-0.1,1.8,0,2.6,0.2s1.5,0.6,2,1.2s0.8,1.4,0.8,2.4v11.1
			C133.8,36.8,132.1,36.9,128.8,37.2z"/>
		<path class="st0" d="M148.6,30.1c0.8-0.1,1.5-0.3,2-0.6c0.5-0.3,0.7-0.8,0.7-1.3c3,0.7,4.4,1,7.4,1.7c-0.3,1-0.9,2-1.8,2.9
			c-0.9,0.9-2.1,1.7-3.5,2.3s-3,1-4.8,1.2c-1.5,0.1-2.9,0.1-4.2-0.1c-1.3-0.2-2.4-0.6-3.4-1.2c-1-0.6-1.8-1.4-2.3-2.4
			c-0.6-1-0.8-2.1-0.8-3.5s0.3-2.6,0.8-3.6c0.6-1.1,1.3-2,2.3-2.7c1-0.8,2.1-1.4,3.4-1.8c1.3-0.5,2.7-0.7,4.2-0.9
			c1.5-0.1,2.9-0.1,4.2,0.1s2.4,0.6,3.3,1.2c0.9,0.6,1.6,1.4,2.1,2.4s0.8,2.2,0.8,3.7c-5.2,0.5-7.8,0.8-13.1,1.3l0,0l0,0
			c0,0.2,0.1,0.5,0.2,0.7c0.1,0.2,0.3,0.4,0.5,0.5s0.5,0.2,0.9,0.3C147.8,30.2,148.2,30.2,148.6,30.1z M148.6,26
			c-0.8,0.1-1.4,0.3-1.9,0.6c-0.5,0.3-0.8,0.7-0.8,1.3l0,0l0,0c2.1-0.2,3.2-0.3,5.4-0.5l0,0l0,0c0-0.3-0.1-0.5-0.2-0.7
			c-0.1-0.2-0.3-0.3-0.6-0.5c-0.2-0.1-0.5-0.2-0.9-0.2C149.3,26,149,26,148.6,26z"/>
		<path class="st0" d="M164.5,27.7v-4.3c0-1.5,0-3,0-4.3c3.3-1.1,4.9-1.7,8.2-2.9c0,0.8,0,1.6,0,2.4v6c0,0.3,0.1,0.6,0.2,0.8
			c0.1,0.2,0.3,0.4,0.6,0.5c0.2,0.1,0.5,0.2,0.9,0.2c0.3,0,0.7,0,1.1,0c0.5-0.1,0.9-0.2,1.4-0.4c0.5-0.2,0.9-0.5,1.3-0.8
			c0.4-0.3,0.7-0.6,0.9-1c0,2.9,0,4.4,0,7.3c-0.7,0.6-1.6,1.1-2.7,1.5c-1.1,0.4-2.2,0.6-3.3,0.8c-1.6,0.2-3.1,0.1-4.4-0.3
			c-1.3-0.4-2.3-1.1-3.1-2C164.8,30.3,164.5,29.1,164.5,27.7L164.5,27.7z M172.7,24.7c0.2-0.8,0.4-1.5,0.6-2.2
			c0.2-0.7,0.4-1.5,0.6-2.2c0.2-0.7,0.4-1.5,0.5-2.2c1.9-0.2,2.8-0.3,4.7-0.5c0,2.6,0,3.9,0,6.5C176.5,24.3,175.2,24.4,172.7,24.7z"
			/>
		<path class="st0" d="M190.6,31.7c-1,0.1-2,0.2-2.9,0.1c-0.9,0-1.8-0.1-2.6-0.3c-0.8-0.2-1.5-0.5-2.2-0.9s-1.2-0.8-1.7-1.4
			c-0.5-0.5-0.8-1.2-1.1-1.9s-0.4-1.6-0.4-2.5c0-1.1,0.2-2.1,0.5-3c0.4-0.9,0.9-1.7,1.5-2.5c0.7-0.7,1.4-1.4,2.3-1.9
			c0.9-0.5,1.9-1,3-1.3c1.1-0.3,2.2-0.6,3.4-0.7c1.5-0.2,2.9-0.2,4.2,0s2.4,0.6,3.4,1.1c1,0.6,1.8,1.3,2.3,2.3
			c0.6,1,0.8,2.1,0.8,3.5s-0.3,2.6-0.8,3.7c-0.6,1.1-1.3,2-2.3,2.8s-2.1,1.4-3.4,1.9C193.5,31.2,192.1,31.5,190.6,31.7z M190.6,25.3
			c1-0.1,1.7-0.4,2.1-0.8c0.4-0.4,0.6-0.9,0.6-1.3c0-0.2,0-0.4-0.1-0.6s-0.2-0.4-0.5-0.5c-0.2-0.2-0.5-0.3-0.8-0.3
			c-0.4-0.1-0.8-0.1-1.3,0s-0.9,0.2-1.3,0.3c-0.4,0.1-0.6,0.3-0.9,0.5c-0.2,0.2-0.4,0.4-0.5,0.6s-0.1,0.4-0.1,0.7s0,0.4,0.1,0.6
			s0.3,0.4,0.5,0.5s0.5,0.2,0.9,0.3C189.6,25.4,190.1,25.4,190.6,25.3z"/>
		<path class="st0" d="M206.9,28.9c0-1.1,0-2.3,0-3.4v-9.2c0-0.8,0-1.5,0-2.3c3.3-0.4,5-0.6,8.3-1c0,1.1,0,2.1,0,3.2v7.4
			c0,1.4,0,2.9,0,4.3C211.9,28.3,210.2,28.5,206.9,28.9z M217.9,27.6c0-1.2,0-2.5,0-3.8s0-2.5,0-3.8c0-0.5-0.1-0.8-0.3-0.9
			c-0.2-0.2-0.5-0.2-0.8-0.2s-0.6,0.1-0.9,0.2c-0.3,0.1-0.4,0.2-0.5,0.3c0.8-2.6,1.2-3.8,1.9-6.4c1.2-0.7,2.4-1.1,3.8-1.2
			c0.7-0.1,1.3-0.1,1.9,0c0.6,0.1,1.2,0.3,1.6,0.5c0.5,0.3,0.9,0.7,1.2,1.2s0.4,1.2,0.4,1.9v4.9c0,1,0,2.1,0,3.1s0,2.1,0,3.1
			C222.9,27,221.2,27.2,217.9,27.6z M228.7,26.3c0-1.2,0-2.5,0-3.8s0-2.5,0-3.8c0-0.5-0.1-0.8-0.3-0.9c-0.2-0.2-0.5-0.2-0.8-0.2
			s-0.6,0.1-0.9,0.2c-0.3,0.1-0.4,0.2-0.5,0.3c0.7-2.5,1-3.8,1.7-6.4c0.6-0.3,1.2-0.6,1.9-0.8s1.3-0.4,2-0.4
			c0.9-0.1,1.8-0.1,2.6,0.1c0.8,0.2,1.5,0.6,2,1.1c0.5,0.6,0.8,1.4,0.8,2.4c0,4.4,0,6.7,0,11.1C233.7,25.7,232,25.9,228.7,26.3z"/>
		<path class="st0" d="M243.7,27.4c0.3-0.4,0.6-0.7,0.8-1.1c0.3-0.4,0.5-0.7,0.8-1.1s0.6-0.7,0.8-1.1c-1.8,0.2-2.7,0.3-4.5,0.5
			c-0.5-1.6-1.1-3.2-1.6-4.8c-0.5-1.6-1.1-3.2-1.6-4.8s-1.1-3.2-1.6-4.8c3.5-0.4,5.3-0.6,8.8-1c0.3,1.7,0.6,3.4,0.9,5
			c0.3,1.7,0.6,3.4,0.9,5c0,0.1,0,0.1,0,0.1c0-0.1,0-0.1,0-0.1c0.2-1.2,0.4-2.3,0.6-3.5c0.2-1.2,0.4-2.3,0.6-3.5
			c0.2-1.2,0.4-2.3,0.6-3.5c3.3-0.4,5-0.5,8.4-0.9c-0.6,2.1-1.3,4.1-1.9,6.1s-1.3,4.1-1.9,6.1c-0.6,2-1.3,4.1-1.9,6.1
			C248.6,26.8,246.9,27,243.7,27.4z"/>
		<path class="st0" d="M285.2,13c0,1.2-0.2,2.3-0.7,3.3s-1.2,1.9-2,2.6c-0.8,0.8-1.8,1.4-2.8,1.8c-1.1,0.4-2.2,0.7-3.3,0.8
			c-0.6,0-1.2,0-1.8,0c-0.6-0.1-1.2-0.1-1.8-0.3c-0.6-0.1-1.1-0.3-1.5-0.6l0,0l0,0c0,1.5,0,2.3,0,3.8c-3.3,0.3-5,0.5-8.3,0.8
			c0-1,0-2,0-3s0-2,0-2.9c0-1,0-2,0-3v-5.9c0-1,0-2,0-3c3.3-0.3,5-0.5,8.3-0.8v2.5c0,0.8,0,1.6,0,2.4V14c0,0.3,0.1,0.6,0.2,0.8
			c0.2,0.2,0.4,0.4,0.6,0.5c0.3,0.1,0.6,0.2,0.9,0.2s0.7,0,1,0c0.6-0.1,1.1-0.2,1.5-0.4s0.7-0.5,0.9-0.8c0.2-0.3,0.3-0.6,0.3-0.9
			c0-0.3-0.1-0.5-0.2-0.7s-0.3-0.4-0.5-0.5s-0.5-0.3-0.9-0.3c-0.4-0.1-0.8-0.1-1.2,0c-0.7,0.1-1.3,0.2-1.8,0.5s-0.9,0.7-1,1.3
			c0.8-2.9,1.2-4.4,1.9-7.3c0.5-0.2,1-0.3,1.6-0.4c0.5-0.1,1-0.2,1.5-0.2c1-0.1,1.9,0,2.8,0.1s1.7,0.4,2.5,0.8s1.4,0.9,2,1.4
			c0.6,0.6,1,1.3,1.3,2.1C285,11.2,285.2,12,285.2,13L285.2,13z"/>
		<path class="st0" d="M296.5,20.5c-1,0.1-2,0-2.9,0c-0.9-0.1-1.8-0.2-2.6-0.5c-0.8-0.2-1.5-0.6-2.2-1s-1.2-0.9-1.7-1.5
			s-0.8-1.2-1.1-2c-0.3-0.7-0.4-1.6-0.4-2.5c0-1.1,0.2-2.1,0.5-3c0.4-0.9,0.9-1.7,1.5-2.4c0.7-0.7,1.4-1.3,2.3-1.8s1.9-0.9,3-1.2
			c1.1-0.3,2.2-0.5,3.4-0.5c1.5-0.1,2.9,0,4.2,0.3c1.3,0.3,2.4,0.7,3.4,1.4c1,0.6,1.8,1.5,2.3,2.5c0.6,1,0.8,2.2,0.8,3.5
			c0,1.4-0.3,2.6-0.8,3.6c-0.6,1-1.3,1.9-2.3,2.6s-2.1,1.3-3.4,1.7C299.4,20.1,298,20.4,296.5,20.5z M296.5,14.1
			c1-0.1,1.7-0.3,2.1-0.7s0.6-0.8,0.6-1.3c0-0.2,0-0.4-0.1-0.6c-0.1-0.2-0.2-0.4-0.5-0.6c-0.2-0.2-0.5-0.3-0.8-0.4
			c-0.4-0.1-0.8-0.1-1.3-0.1s-0.9,0.1-1.3,0.2c-0.4,0.1-0.6,0.3-0.9,0.5c-0.2,0.2-0.4,0.4-0.5,0.6c-0.1,0.2-0.1,0.4-0.1,0.7
			s0,0.4,0.1,0.7c0.1,0.2,0.3,0.4,0.5,0.5c0.2,0.2,0.5,0.3,0.9,0.4C295.6,14.1,296,14.1,296.5,14.1L296.5,14.1z"/>
		<path class="st0" d="M316.3,4c0,1,0,1.9,0,2.9v5.8c0,1,0,2,0,3.1c0,1,0,2.1,0,3.1c-3.3,0.1-5,0.1-8.3,0.3c0-1.6,0-3.2,0-4.8
			s0-3.2,0-4.8V7c0-0.9,0-1.8,0-2.7C311.3,4.2,313,4.1,316.3,4z M316.3,13.2c0.5-2.6,0.8-3.9,1.3-6.5c0.1-0.7,0.4-1.3,0.9-1.7
			c0.4-0.5,0.9-0.8,1.5-1.1s1.2-0.4,1.8-0.5c0.6-0.1,1.2,0,1.7,0c0.5,0.1,0.9,0.3,1.2,0.5c-0.7,3.6-1.1,5.4-1.8,8.9
			c-0.5-0.4-1-0.6-1.7-0.8c-0.7-0.1-1.3-0.2-2-0.1c-0.7,0.1-1.3,0.2-1.8,0.4C316.8,12.6,316.4,12.9,316.3,13.2z"/>
		<path class="st0" d="M325.6,12.5V8.1c0-1.5,0-3,0-4.3c3.3-0.8,4.9-1.2,8.2-2c0,0.8,0,1.6,0,2.4v2.4c0,0.6,0,1.2,0,1.8v1.8
			c0,0.3,0.1,0.6,0.2,0.8s0.3,0.4,0.6,0.6c0.2,0.2,0.5,0.3,0.9,0.4c0.3,0.1,0.7,0.1,1.1,0.1c0.5,0,0.9-0.1,1.4-0.2
			c0.5-0.1,0.9-0.3,1.3-0.6c0.4-0.2,0.7-0.5,0.9-0.9c0,2.9,0,4.4,0,7.3c-0.7,0.5-1.6,0.9-2.7,1.2c-1.1,0.2-2.2,0.4-3.3,0.4
			c-1.6,0-3.1-0.3-4.4-0.8s-2.3-1.3-3.1-2.3C326,15.1,325.6,13.9,325.6,12.5L325.6,12.5z M333.8,10.4c0.2-0.7,0.4-1.5,0.6-2.2
			s0.4-1.4,0.6-2.2c0.2-0.7,0.4-1.4,0.5-2.2c1.9,0,2.8,0,4.7,0.1c0,2.6,0,3.9,0,6.5C337.6,10.4,336.3,10.4,333.8,10.4z"/>
		<path class="st0" d="M353.8,0.8c0.7,0.2,1.4,0.4,2.1,0.6c0.6,0.2,1.1,0.5,1.5,0.7c-0.9,2.7-1.3,4.1-2.2,6.8c0-0.6-0.2-1.1-0.7-1.4
			s-1-0.5-1.6-0.5c-0.3,0-0.5,0-0.7,0s-0.4,0.1-0.6,0.2s-0.3,0.2-0.4,0.3c-0.1,0.1-0.2,0.3-0.3,0.5c-0.1,0.2-0.1,0.4-0.1,0.6l0,0
			c1.8,0.1,2.6,0.1,4.4,0.2c-0.7,2.2-1,3.3-1.7,5.5c-1.1-0.1-1.6-0.1-2.7-0.1l0,0v3.3c0,0.5,0,1.1,0,1.7c-3.4-0.2-5-0.2-8.4-0.3
			v-1.7c0-0.5,0-1,0-1.5V14l0,0c-0.7,0-1.1,0-1.8,0c0.2-0.6,0.4-1.2,0.6-1.8s0.4-1.2,0.6-1.8s0.4-1.2,0.6-1.8V8.1
			c0-1.6,0.4-3,1.1-4.1c0.8-1.2,1.8-2.1,3.2-2.7s3-0.9,4.9-0.8C352.3,0.6,353,0.7,353.8,0.8L353.8,0.8z"/>
		<path class="st0" d="M366.4,21c-1-0.1-2-0.2-2.9-0.5c-0.9-0.2-1.8-0.5-2.6-0.9c-0.8-0.4-1.5-0.8-2.2-1.3s-1.2-1.1-1.7-1.7
			s-0.8-1.3-1.1-2.1s-0.4-1.6-0.4-2.6c0-1.1,0.2-2.1,0.5-2.9c0.4-0.9,0.9-1.6,1.5-2.2c0.7-0.6,1.4-1.1,2.3-1.5s1.9-0.6,3-0.8
			c1.1-0.1,2.2-0.1,3.4,0c1.5,0.1,2.9,0.4,4.2,0.9c1.3,0.5,2.4,1.1,3.4,1.9s1.8,1.7,2.3,2.8c0.6,1.1,0.8,2.3,0.8,3.7
			s-0.3,2.5-0.8,3.5c-0.6,1-1.3,1.7-2.3,2.3c-1,0.6-2.1,1-3.4,1.2C369.3,21.1,367.9,21.1,366.4,21L366.4,21z M366.5,14.6
			c1,0.1,1.7,0,2.1-0.4c0.4-0.3,0.6-0.7,0.6-1.2c0-0.2,0-0.4-0.1-0.6c-0.1-0.2-0.2-0.4-0.5-0.6c-0.2-0.2-0.5-0.4-0.8-0.5
			c-0.4-0.1-0.8-0.2-1.3-0.3c-0.5,0-0.9,0-1.3,0c-0.4,0.1-0.6,0.2-0.9,0.3c-0.2,0.2-0.4,0.3-0.5,0.5s-0.1,0.4-0.1,0.6s0,0.4,0.1,0.7
			c0.1,0.2,0.3,0.4,0.5,0.6c0.2,0.2,0.5,0.3,0.9,0.5C365.5,14.5,365.9,14.6,366.5,14.6L366.5,14.6z"/>
		<path class="st0" d="M377.9,21.5V6.7c0-1.1,0-2.2,0-3.3c3.3,0.4,5,0.6,8.3,1.1v2c0,0.7,0,1.3,0,2v7c0,2.3,0,4.7,0,7
			C382.9,22.1,381.3,21.9,377.9,21.5z"/>
		<path class="st0" d="M387.2,14.3V11c0-1.1,0-2.2,0-3.2c3.3,0.5,5,0.8,8.3,1.3v4.8l0,0c-1.4,0.1-2.8,0.1-4.1,0.2
			C390,14.1,388.6,14.2,387.2,14.3L387.2,14.3z M387.2,22.7v-2.2c0-0.7,0-1.5,0-2.2v-4c0.9,0.1,1.9,0.3,2.8,0.4
			c0.9,0.1,1.8,0.3,2.8,0.4c0.9,0.2,1.8,0.3,2.8,0.5V24C392.2,23.4,390.5,23.2,387.2,22.7z"/>
		<path class="st0" d="M407,26.9c-1-0.2-2-0.5-2.9-0.8s-1.8-0.7-2.6-1.2c-0.8-0.4-1.5-1-2.2-1.5c-0.7-0.6-1.2-1.2-1.7-1.9
			c-0.5-0.7-0.8-1.4-1.1-2.2s-0.4-1.7-0.4-2.6c0-1.1,0.2-2,0.5-2.8c0.4-0.8,0.9-1.5,1.5-2c0.7-0.5,1.4-0.9,2.3-1.2s1.9-0.4,3-0.4
			s2.2,0.1,3.4,0.4c1.5,0.3,2.9,0.8,4.2,1.4c1.3,0.6,2.4,1.4,3.4,2.3c1,0.9,1.8,2,2.3,3.1c0.6,1.2,0.8,2.4,0.8,3.8s-0.3,2.5-0.8,3.4
			c-0.6,0.9-1.3,1.5-2.3,2c-1,0.4-2.1,0.7-3.4,0.7C409.9,27.4,408.5,27.3,407,26.9z M407.1,20.6c1,0.2,1.7,0.2,2.1-0.1
			c0.4-0.3,0.6-0.7,0.6-1.1c0-0.2,0-0.4-0.1-0.7c-0.1-0.2-0.2-0.5-0.5-0.7c-0.2-0.2-0.5-0.4-0.8-0.6c-0.4-0.2-0.8-0.3-1.3-0.4
			s-0.9-0.1-1.3-0.1s-0.6,0.1-0.9,0.2c-0.2,0.1-0.4,0.3-0.5,0.5s-0.1,0.4-0.1,0.6s0,0.5,0.1,0.7s0.3,0.5,0.5,0.7s0.5,0.4,0.9,0.6
			C406.1,20.3,406.5,20.5,407.1,20.6z"/>
	</g>
</g>
</svg>
